<svg data-v-0dd9719b="" version="1.0" xmlns="http://www.w3.org/2000/svg" xmlns:xlink="http://www.w3.org/1999/xlink" width="100%" height="100%" viewBox="0 0 340.000000 250.000000" preserveAspectRatio="xMidYMid meet" color-interpolation-filters="sRGB" style="margin: auto;"> <rect data-v-0dd9719b="" x="0" y="0" width="100%" height="100%" fill="#fff" fill-opacity="1" class="background"></rect> <rect data-v-0dd9719b="" x="0" y="0" width="100%" height="100%" fill="url(#watermark)" fill-opacity="1" class="watermarklayer"></rect> <g data-v-0dd9719b="" fill="#333" class="icon-text-wrapper icon-svg-group iconsvg" transform="translate(47.44499969482422,90.3299446105957)"><g class="iconsvg-imagesvg" transform="translate(0,0)"><g><rect fill="#333" fill-opacity="0" stroke-width="2" x="0" y="0" width="59.99999999999999" height="69.34011325551832" class="image-rect"></rect> <svg x="0" y="0" width="59.99999999999999" height="69.34011325551832" filtersec="colorsb9907509708" class="image-svg-svg primary" style="overflow: visible;"><svg xmlns="http://www.w3.org/2000/svg" viewBox="0 0 86.52999877929688 100"><path fill="#2084f7" d="M20.82 87.16L0 75.28V25.04l20.82 12.33v49.79z"></path><path fill="#22cfee" d="M18.95 14.03L0 25.04l20.82 12.33 18.95-10.83-20.82-12.51z"></path><path fill="#23b0f1" d="M86.53 50.55l-.11 24.39L43.03 100l.14-24.56 43.36-24.89z"></path><path fill="#2084f7" d="M24.1 88.87L43.03 100l.14-24.56-19.02-10.58-.05 24.01z"></path><path fill="#22cfee" d="M22.41 12.17L43.06 0l43.28 25.04L65.92 37.2 22.41 12.17z"></path><path fill="#23b0f1" d="M86.37 46.98l-.03-21.94L65.92 37.2l.02 21.81 20.43-12.03z"></path><path fill="#22cfee" d="M60.79 60.12L43.27 70.23 25.75 60.12V39.88l17.52-10.11 17.52 10.11v20.24z"></path></svg></svg> <!----></g></g> <g transform="translate(67,5.5088043212890625)"><g data-gra="path-name" fill-rule="" class="tp-name iconsvg-namesvg" transform="translate(0,0)"><g transform="scale(1)"><g><path d="M8.66-37.71L8.66-37.71 8.96-37.92Q16.48-36.74 18.63-32.92L18.63-32.92Q20-30.54 18.72-28.52L18.72-28.52Q17.58-26.67 15.38-26.98L15.38-26.98Q14.24-27.11 13.1-27.95L13.1-27.95Q12.22-32.65 8.66-37.71ZM41.13-24.92L41.13-24.92 3.74-24.92 3.38-26.19 24.92-26.19Q26.81-31.07 28.56-38.54L28.56-38.54 37.35-35.24Q36.96-34.32 35.42-34.37L35.42-34.37Q31.38-29.44 26.37-26.19L26.37-26.19 31.86-26.19 35.64-31.25Q39.99-27.91 42.5-25.66L42.5-25.66Q42.28-24.92 41.13-24.92ZM6.72-12.66L6.33-13.89 28.74-13.89 32.52-18.94Q36.83-15.6 39.33-13.36L39.33-13.36Q39.16-12.66 37.97-12.66L37.97-12.66 6.72-12.66ZM1.41-0.57L33.49-0.57 37.27-5.63Q41.53-2.29 44.03-0.04L44.03-0.04Q43.86 0.66 42.71 0.66L42.71 0.66 1.76 0.66 1.41-0.57ZM50.63-27.77L50.63-27.77 51.11-27.82Q52.73-24.65 53.24-21.84 53.75-19.03 53.35-17.12 52.95-15.21 51.9-13.89L51.9-13.89Q50.76-12.52 48.96-12.68 47.15-12.83 46.27-14.37L46.27-14.37Q44.82-17.05 47.59-19.07L47.59-19.07Q48.87-20.3 49.83-22.76 50.8-25.22 50.63-27.77ZM78.97-20.79L78.97-37.31 87.01-36.52Q86.88-35.46 85.39-35.24L85.39-35.24 85.39 2.02Q85.39 2.55 83.63 3.36 81.87 4.17 80.2 4.17L80.2 4.17 78.97 4.17 78.97-14.99Q78.13-13.97 76.71-14 75.28-14.02 73.96-15.34L73.96-15.34Q74.09-19.07 72.47-23.73L72.47-23.73 72.47 1.36Q72.47 1.85 70.77 2.64 69.08 3.43 67.46 3.43L67.46 3.43 66.27 3.43 66.27-14.81Q65.43-14.11 64.12-14.26 62.8-14.41 61.66-15.6L61.66-15.6Q61.83-19.47 60.38-23.86L60.38-23.86 60.38-18.94Q60.34-15.03 59.7-11.78 59.06-8.53 57.59-5.41 56.12-2.29 53.42 0.2 50.71 2.68 46.89 4.35L46.89 4.35 46.58 4Q50.89-0.18 52.56-5.84 54.23-11.51 54.23-18.94L54.23-18.94 54.23-37.22 62.05-36.47Q61.92-35.42 60.38-35.2L60.38-35.2 60.38-25.49Q64.38-23.91 66.27-21.53L66.27-21.53 66.27-36.65 74.14-35.86Q74-34.8 72.47-34.58L72.47-34.58 72.47-25.44Q77.08-23.64 78.97-20.79L78.97-20.79ZM134.65-25.66L134.65-25.66 134.6-24.92Q132.54-24.35 131.11-22.39 129.68-20.43 129.33-18.28L129.33-18.28Q117.86-24.57 114.74-34.37L114.74-34.37Q110.7-27.91 101.78-22.06L101.78-22.06 114.65-22.06 117.69-25.88Q121.07-23.29 123.13-21.49L123.13-21.49Q122.96-20.79 121.86-20.79L121.86-20.79 115.22-20.79 115.22-14.37 121.95-14.37 125.2-18.63Q128.94-15.73 131.13-13.8L131.13-13.8Q130.96-13.1 129.81-13.1L129.81-13.1 115.22-13.1 115.22 1.32 123.22 1.32 126.83-3.38Q130.91-0.26 133.33 1.85L133.33 1.85Q133.15 2.55 131.97 2.55L131.97 2.55 92.33 2.55 91.98 1.32 108.46 1.32 108.46-13.1 94.61-13.1 94.26-14.37 108.46-14.37 108.46-20.79 101.87-20.79 101.56-21.93Q96.2-18.41 91.01-16.48L91.01-16.48 90.7-16.92Q96.55-20.96 101.73-27.36 106.92-33.75 108.15-38.63L108.15-38.63 117.91-36.04Q117.69-35.16 115.44-34.94L115.44-34.94Q116.89-32.96 119.2-31.38 121.51-29.79 124.32-28.7 127.13-27.6 129.46-26.94 131.79-26.28 134.65-25.66ZM117.55-0.26L117.55-0.26 117.03-0.57Q118.56-6.11 119.71-11.73L119.71-11.73 128.06-8.79Q127.75-7.82 126.21-7.87L126.21-7.87Q121.95-3.16 117.55-0.26ZM98.35-11.25L98.35-11.25 98.79-11.43Q104.85-9.36 106.08-5.71L106.08-5.71Q106.92-3.3 105.38-1.58L105.38-1.58Q103.89 0.04 101.73-0.7L101.73-0.7Q100.68-1.05 99.76-2.02L99.76-2.02Q100.06-6.5 98.35-11.25ZM154.07-18.68L154.07-29.93 143.31-29.93Q143.7-27.47 142.98-25.69 142.25-23.91 140.8-23.25L140.8-23.25Q139.57-22.63 138.25-23.14 136.93-23.64 136.54-25L136.54-25Q136.23-26.32 136.89-27.31 137.55-28.3 138.82-28.78L138.82-28.78Q140.01-29.36 140.82-30.76 141.64-32.17 141.46-33.71L141.46-33.71 142.08-33.75Q142.65-32.61 143.04-31.2L143.04-31.2 154.07-31.2 154.07-34.32 140.71-34.32 140.36-35.6 166.95-35.6 169.89-39.02Q173.1-36.74 175.17-35.07L175.17-35.07Q174.95-34.32 173.94-34.32L173.94-34.32 160.49-34.32 160.49-31.2 170.86-31.2 173.76-34.1 178.77-29.36Q178.33-28.87 177.06-28.74L177.06-28.74Q174.29-26.37 171.25-24.83L171.25-24.83 170.86-25.09 170.9-25.36Q170.64-25.27 170.51-25.27L170.51-25.27 161.54-25.27 161.19-26.54 165.5-26.54 167.65-29.14Q169.5-27.82 171.04-26.54L171.04-26.54Q171.21-28.21 171.3-29.93L171.3-29.93 160.49-29.93 160.49-19.91Q160.49-19.78 159.9-19.49 159.3-19.2 158.03-18.94 156.75-18.68 155.26-18.68L155.26-18.68 154.07-18.68ZM161.06-22.15L166.2-22.15 168.53-24.87Q171.12-23.03 172.75-21.62L172.75-21.62Q172.62-20.87 171.61-20.87L171.61-20.87 161.41-20.87 161.06-22.15ZM152.53-20.87L143.26-20.87 142.91-22.15 147.44-22.15 149.68-24.74Q152.14-22.98 153.76-21.62L153.76-21.62Q153.54-20.87 152.53-20.87L152.53-20.87ZM143.75-26.54L147.44-26.54 149.55-29.09Q151.92-27.33 153.46-26.02L153.46-26.02Q153.33-25.27 152.27-25.27L152.27-25.27 144.1-25.27 143.75-26.54ZM177.28-12.66L177.28-12.66 170.02-12.66Q171.52-10.2 174.07-8.35 176.62-6.5 179.52-5.45L179.52-5.45 179.43-5.01Q176-4.09 174.86 0.79L174.86 0.79Q172.53-1.41 171.23-4.64 169.94-7.87 169.1-12.66L169.1-12.66 168.93-12.66 168.93 2.59Q168.93 2.81 168.18 3.19 167.43 3.56 166.2 3.87 164.97 4.17 163.92 4.17L163.92 4.17 162.82 4.17 162.82-5.32Q159.3-1.71 153.63 0.83L153.63 0.83 153.28 0.31Q158.6-4.26 160.8-12.66L160.8-12.66 157.5-12.66 157.37-13.18Q157.19-12.57 156.14-12.57L156.14-12.57 150.25-12.57 150.25-11.29Q155.74-10.63 156.84-7.91L156.84-7.91Q157.5-6.2 156.18-4.92L156.18-4.92Q154.78-3.6 152.89-4.53L152.89-4.53Q152.49-4.75 152.09-5.05L152.09-5.05Q152.09-8 150.25-10.59L150.25-10.59 150.25 2.64Q150.25 2.86 149.52 3.23 148.8 3.6 147.61 3.89 146.43 4.17 145.42 4.17L145.42 4.17 144.27 4.17 144.27-5.05Q140.98-1.63 136.19 0.83L136.19 0.83 135.79 0.31Q140.36-4.39 142.47-12.57L142.47-12.57 137.37-12.57 137.02-13.8 144.27-13.8 144.27-19.82 151.74-19.12Q151.61-18.24 150.25-18.02L150.25-18.02 150.25-13.8 150.38-13.8 152.89-17.18Q155.61-14.94 157.32-13.32L157.32-13.32 157.15-13.89 162.82-13.89 162.82-19.73 170.42-19.03Q170.24-18.11 168.93-17.93L168.93-17.93 168.93-13.89 170.9-13.89 173.63-17.58Q176.66-15.07 178.46-13.36L178.46-13.36Q178.33-12.66 177.28-12.66Z" transform="translate(-1.409999966621399, 39.02000045776367)"></path></g> <!----> <!----> <!----> <!----> <!----> <!----> <!----></g></g> <g data-gra="path-slogan" fill-rule="" class="tp-slogan iconsvg-slogansvg" fill="#333" transform="translate(41.45500183105469,49.369998931884766)"><!----> <!----> <g transform="scale(1, 1)"><g transform="scale(1)"><path d="M0.89-8.58L2.06-8.58L2.06-1.03L6.42-1.03L6.42 0L0.89 0L0.89-8.58ZM13.22 0L12.38-2.48L8.91-2.48L8.02 0L6.84 0L10.08-8.58L11.39-8.58L14.48 0L13.22 0ZM10.64-7.31L9.28-3.52L11.95-3.52L10.69-7.31L10.64-7.31ZM16.92-8.58L21.23-1.64L21.23-8.58L22.36-8.58L22.36 0L21.05 0L16.69-6.94L16.64-6.94L16.64 0L15.52 0L15.52-8.58L16.92-8.58ZM24.98-1.03L30.28-1.03L30.28 0L23.53 0L23.53-0.94L28.78-7.59L23.91-7.59L23.91-8.58L30.28-8.58L30.28-7.59L24.98-1.03ZM32.58-5.06L37.08-5.06L37.08-8.58L38.25-8.58L38.25 0L37.08 0L37.08-3.98L32.58-3.98L32.58 0L31.41 0L31.41-8.58L32.58-8.58L32.58-5.06ZM46.83-4.27L46.83-4.27Q46.64-7.64 43.83-7.83L43.83-7.83Q40.97-7.69 40.83-4.27L40.83-4.27Q40.97-0.94 43.83-0.80L43.83-0.80Q46.64-0.98 46.83-4.27ZM48-4.27L48-4.27Q47.72 0 43.83 0.14L43.83 0.14Q39.89 0 39.61-4.27L39.61-4.27Q39.84-8.72 43.83-8.81L43.83-8.81Q47.72-8.67 48-4.27ZM55.03-3.19L55.03-8.58L56.20-8.58L56.20-3.05Q56.06 0.05 52.69 0.14L52.69 0.14Q49.55 0.05 49.41-2.86L49.41-2.86L49.41-8.58L50.58-8.58L50.58-3.19Q50.63-0.84 52.73-0.80L52.73-0.80Q55.03-0.84 55.03-3.19L55.03-3.19ZM60.61-1.92L60.61-2.77L61.69-2.77L61.69-2.16Q61.69-0.75 63-0.75L63-0.75Q64.36-0.75 64.36-2.25L64.36-2.25L64.36-8.58L65.53-8.58L65.53-2.30Q65.48 0.09 63.05 0.14L63.05 0.14Q60.75 0.09 60.61-1.92L60.61-1.92ZM67.50-8.58L68.67-8.58L68.67 0L67.50 0L67.50-8.58ZM72.05-8.58L76.36-1.64L76.36-8.58L77.48-8.58L77.48 0L76.17 0L71.81-6.94L71.77-6.94L71.77 0L70.64 0L70.64-8.58L72.05-8.58ZM79.27-8.58L80.44-8.58L80.44-1.03L84.80-1.03L84.80 0L79.27 0L79.27-8.58ZM86.11-8.58L87.28-8.58L87.28 0L86.11 0L86.11-8.58ZM90.66-8.58L94.97-1.64L94.97-8.58L96.09-8.58L96.09 0L94.78 0L90.42-6.94L90.38-6.94L90.38 0L89.25 0L89.25-8.58L90.66-8.58Z" transform="translate(-0.890625, 8.8125)"></path></g></g></g></g></g><defs v-gra="od"></defs></svg>